<svg version="1.2" xmlns="http://www.w3.org/2000/svg" viewBox="0 0 550 550" width="550" height="550">
	<title>possible_logo (1)-svg</title>
	<style>
		.s0 { fill: #f7f8fa } 
		.s1 { fill: #2d407d } 
		.s2 { fill: #2e417d } 
		.s3 { fill: #f8f9fb } 
		.s4 { fill: none } 
	</style>
	<path id="Layer" fill-rule="evenodd" class="s0" d="m369.7 424c-6.4 5.7-12.6 11.1-18.5 16.7-1.6 1.5-2.3 3.7-4.1 6.6 17 0 33.3 0 49.6 0q0 0.7 0 1.4c-7.3 3-14.8 2.4-22.4 2-6.2-0.3-12.5 0-18.7 0-3.6 0.1-7.3 0-10.9 0.4-2.3 0.2-5 0.5-6.6 1.8q-20.8 17.5-41.3 35.4c-1.2 1-1.5 3.5-1.6 5.3-0.2 4.7 0.4 9.4-2.7 13.7-4.1 5.8-10.3 8.1-18.7 6.1-6.2-1.4-10.3-6.3-10.9-13.1-0.2-1.5-0.6-3.3 0-4.5 2.5-5.2-1-8.3-4.1-11.1-3.7-3.3-8.2-5.9-12-9.1-5.9-5-11.8-10.1-17.3-15.5-7.1-6.9-14.7-11-25.2-10.3-13.9 0.9-28 0.2-41.9 0.2q-0.3-0.7-0.6-1.4c1.5-0.5 2.9-1.5 4.4-1.5 6.8-0.2 13.6 0.1 20.5-0.2 7.5-0.2 15-0.8 24.2-1.4-2.7-3-4.3-5.1-6.2-6.8-12.5-11.3-25-22.6-37.7-33.7-0.9-0.8-3.2-1.1-4.5-0.6-6 2.2-11.8 2.4-16.7-1.9-5.5-4.8-7.8-11-5-18.3 1.4-3.4 0.4-6.1-2.4-8.5-13.3-11.3-26.5-22.8-39.7-34.2-12.1-10.5-24.2-21.1-36.4-31.5-4-3.5-8.2-6.6-12-10.1-3.2-2.9-5.9-1.1-8.8 0.2-0.6 0.3-1 1.4-1.5 1.5-4.5 0.5-14.9-7.4-16.3-11.9-2-5.9-1.8-11.7 0.8-17.1 1.4-2.8 3.7-5.8 6.4-7 5.8-2.7 7-7.7 8.4-12.9 0.2-0.7 0.6-1.5 0.5-1.1-0.1 0.4-0.7 1.9-0.8 3.5-0.1 2.7-1 7 0.3 8 2.3 1.6 6.5 2.3 9.2 1.3 3.6-1.1 6.8-3.9 9.7-6.6 10.5-9.6 20.8-19.5 31.2-29.4 11.4-10.8 22.8-21.7 34.2-32.5 5.2-4.9 10.6-9.5 15.4-14.8 1.6-1.9 2.7-5.5 2.1-7.8-2.5-9.4 1.6-20.5 14.1-22.2 2.5-0.3 5.3 0.3 7.6 1.2 5.2 2.2 9.1 0.7 13-2.9 6.3-5.8 12.9-11.3 19.2-17.1q8.3-7.5 16.3-15.4c0.9-0.9 1.2-2.5 2.4-4.9-4.8 0-8.6 0-12.3 0q-5.5 0-10.9 0-0.4-0.7-0.7-1.3c0.9-0.6 1.8-1.6 2.7-1.6q11.6-0.7 23.3-1.1c3.7-0.1 6.5-1.1 9.4-4.1 4.8-4.8 11.2-8.1 16.5-12.4 7.3-5.9 14.6-11.8 21.1-18.5 1.8-1.9 1.3-6.6 0.8-9.8-1.4-9.2 4.3-17.2 13.5-18.2 5.5-0.6 11.4 0.2 14.7 4.1 3.6 4.1 5.9 10 4.1 15.9-0.9 3.2 0 4.9 2.2 6.8q16.5 14.2 32.9 28.5c6.2 5.5 12.9 8.3 21.5 7.9 10.8-0.4 21.6 0.8 32.4 1.2q0.1 0.7 0.1 1.4-19.1 0.8-38.2 1.6c3.7 4.1 7.2 8.3 11.2 12 9.2 8.5 18.8 16.7 28.1 25.1 3.8 3.5 7.7 4.9 13 3.5 13.1-3.4 23 7.2 19.5 19.9-1.2 4.6 0.1 8.1 3.8 11.4 11.4 10 22.7 20.3 33.9 30.5 17.3 15.9 34.6 31.9 51.9 47.8 3.6 3.3 7.5 4.7 12.5 3.1 5.6-1.8 10.8-0.1 15.1 3.4 5.4 4.3 6.3 10.5 4.8 16.5-3 11.7-10.2 15.6-22.2 13.5-1.3-0.2-2.8 0.9-4.2 1.6-9.5 4.7-16.8 12.3-24.6 19.4-5.6 5.1-11.8 9.5-17.6 14.5-10.6 9.2-21 18.6-31.7 27.8-5.4 4.7-11.3 8.9-16.7 13.5-3.3 2.9-6.3 5.6-4.9 11.5 2.1 9.6-7.2 20.4-18.3 18.4-9-1.7-14.1 3.5-19.8 8.4-3.6 3.2-7.1 6.4-10.9 9.8zm-217.8-212.5c0 31.5 0 62.9 0 94.4 0 20.8 0.2 41.7 0 62.5 0 4.2 0.8 5.9 5.5 5.7 9.8-0.3 17.6 9.7 14.2 19-2.3 6.1-0.5 8.8 3.9 12.6 14.2 12 27.8 24.9 41.9 37.1 2.7 2.3 7 4.1 10.6 4.1 34.8 0.3 69.6 0.2 104.4 0 2.7-0.1 6-1.3 8-3 14.9-12.8 29.4-26.1 44.3-38.8 3.9-3.2 4.5-5.7 3-10.3-3.6-10.8 1.5-18.7 12.5-20.9 1.3-0.3 2.5-0.8 3.8-1.2 0-34.3 0-68.3 0-102.2 0-26.9 0-53.7 0.1-80.5 0-2.7-0.4-4.7-3.4-5.8-13.3-4.6-15.7-9.6-11.7-23.4 0.3-1.1-0.3-3.1-1.2-3.9-15.2-13.7-30.7-27.2-45.9-40.9-3.9-3.6-8.4-4.9-13.5-4.9-32.5-0.1-65-0.1-97.5 0-1.9 0-4.3 0.8-5.7 2-18.1 15.4-36 30.9-53.7 46.2 0.9 6.2 2.5 11.9-2.8 17.2-4.8 4.6-9.6 7.9-16.8 6.4 0 9.7 0 18.6 0 28.6zm341.1 43c-7-6.7-14-13.3-21-20-17.6-16.5-35.1-33.1-52.8-49.6-1.8-1.6-4.9-3.3-6.9-2.9-4.1 0.8-5.5 3.9-5.5 8.5 0.3 58.3 0.2 116.6 0.3 174.9 0 8.3-0.1 8.3 8.3 11.5 31.9-27.5 63.9-55.2 95.9-82.8-4.2-7.3-4.3-14.1-2.2-21.3 0.4-1.1-0.3-3.1-1.1-4-4.7-4.7-9.6-9.2-15-14.3zm-393.7-28.7q-23.8 22.3-47.6 44.7c7.1 9.4 7.1 12 0 23.7 7.7 6.7 15.5 13.5 23.2 20.2 22.9 20.1 45.8 40.3 68.7 60.3 1 0.9 2.6 0.9 4.4 1.5 0-2.7 0-4.6 0-6.4q0-90.2 0.1-180.3c0-2.2 0.1-4.4 0-6.5-0.1-0.7-0.8-1.6-1.4-1.8-0.4-0.1-1.2 0.5-1.7 1-15.1 14.4-30.1 28.7-45.7 43.6zm133.7 230.7c11.4 9.9 22.8 19.9 34.3 30 8.6-7 16.8-5.6 24.3 0.6 13.7-12.3 26.8-24.1 40.9-36.7-36 0-70.6 0-106 0 2.4 2.2 4.2 3.9 6.5 6.1zm98.4-350.3c-13.2-11.4-26.3-22.9-39.6-34.5-5.6 6.2-12.1 6.4-19.3 4.3-1.9-0.6-5 0-6.5 1.2-7.7 6.4-15.1 13.1-22.5 19.7-3.9 3.5-7.7 6.9-12.6 11.3 16.5 0 31.4 0 46.4 0 17.1 0 34.3 0 51.4-0.1 1.1 0 2.1-0.9 2.7-1.9z"/>
	<path id="Layer" fill-rule="evenodd" class="s1" d="m151.9 211c0-9.5 0-18.4 0-28.1 7.2 1.5 12-1.8 16.8-6.4 5.3-5.3 3.7-11 2.8-17.2 17.7-15.3 35.6-30.8 53.7-46.2 1.4-1.2 3.8-2 5.7-2 32.5-0.1 65-0.1 97.5 0 5.1 0 9.6 1.3 13.5 4.9 15.2 13.7 30.7 27.2 45.9 40.9 0.9 0.8 1.5 2.8 1.2 3.9-4 13.8-1.6 18.8 11.7 23.4 3 1.1 3.4 3.1 3.4 5.8-0.1 26.8-0.1 53.6-0.1 80.5 0 33.9 0 67.9 0 102.2-1.3 0.4-2.5 0.9-3.8 1.2-11 2.2-16.1 10.1-12.5 20.9 1.5 4.6 0.9 7.1-3 10.3-14.9 12.7-29.4 26-44.3 38.8-2 1.7-5.3 2.9-8 3-34.8 0.2-69.6 0.3-104.4 0-3.6 0-7.9-1.8-10.6-4.1-14.1-12.2-27.7-25.1-41.9-37.1-4.4-3.8-6.2-6.5-3.9-12.6 3.4-9.3-4.4-19.3-14.2-19-4.7 0.2-5.5-1.5-5.5-5.7 0.2-20.8 0-41.7 0-62.5 0-31.5 0-62.9 0-94.9zm93.1 118.5c0-9.9 0-19.9 0-30 21.8 0 42.7 0 64.2 0 0 19 0 37.7 0 56.5 8.2 0 15.9-0.2 23.5 0.1 4.4 0.2 5.3-1.5 5.3-5.5-0.1-41.5 0-82.9-0.1-124.4 0-2.4-0.6-4.8-0.9-6.4-8.1 0-15.4 0.2-22.7-0.1-4.6-0.3-5.5 1.5-5.4 5.7 0.2 16 0.1 32 0.1 48 0.1 3.2-0.7 4.6-4.5 4.5-17.6-0.2-35.3 0-53 0.1-1.7 0-3.5 0-6 0 0-19.8 0-38.8 0-58.3-9.9 0-19 0-28.2 0 0 45.6 0 91.2 0 136.4 9.4 0 18.4 0 27.7 0 0-9 0-17.3 0-26.6z"/>
	<path id="Layer" class="s2" d="m493.3 254.7c5.1 4.9 10 9.4 14.7 14.1 0.8 0.9 1.5 2.9 1.1 4-2.1 7.2-2 14 2.2 21.3-32 27.6-64 55.3-95.9 82.8-8.4-3.2-8.3-3.2-8.3-11.5-0.1-58.3 0-116.6-0.3-174.9 0-4.6 1.4-7.7 5.5-8.5 2-0.4 5.1 1.3 6.9 2.9 17.7 16.5 35.2 33.1 52.8 49.6 7 6.7 14 13.3 21.3 20.2z"/>
	<path id="Layer" class="s1" d="m99.6 225.6c15.3-14.7 30.3-29 45.4-43.4 0.5-0.5 1.3-1.1 1.7-1 0.6 0.2 1.3 1.1 1.4 1.8 0.1 2.1 0 4.3 0 6.5q-0.1 90.1-0.1 180.3c0 1.8 0 3.7 0 6.4-1.8-0.6-3.4-0.6-4.4-1.5-22.9-20-45.8-40.2-68.7-60.3-7.7-6.7-15.5-13.5-23.2-20.2 7.1-11.7 7.1-14.3 0-23.7 15.8-14.9 31.7-29.8 47.9-44.9z"/>
	<path id="Layer" class="s2" d="m232.8 456.2c-2.1-1.9-3.9-3.6-6.3-5.8 35.4 0 70 0 106 0-14.1 12.6-27.2 24.4-40.9 36.7-7.5-6.2-15.7-7.6-24.3-0.6-11.5-10.1-22.9-20.1-34.5-30.3z"/>
	<path id="Layer" class="s2" d="m331.6 106.5c-0.8 0.7-1.8 1.6-2.9 1.6-17.1 0.1-34.3 0.1-51.4 0.1-15 0-29.9 0-46.4 0 4.9-4.4 8.7-7.8 12.6-11.3 7.4-6.6 14.8-13.3 22.5-19.7 1.5-1.2 4.6-1.8 6.5-1.2 7.2 2.1 13.7 1.9 19.3-4.3 13.3 11.6 26.4 23.1 39.8 34.8z"/>
	<path id="Layer" class="s3" d="m245 330c0 8.8 0 17.1 0 26.1-9.3 0-18.3 0-27.7 0 0-45.2 0-90.8 0-136.4 9.2 0 18.3 0 28.2 0 0 19.5 0 38.5 0 58.3 2.5 0 4.3 0 6 0 17.7-0.1 35.4-0.3 53-0.1 3.8 0.1 4.6-1.3 4.5-4.5 0-16 0.1-32-0.1-48-0.1-4.2 0.8-6 5.4-5.7 7.3 0.3 14.6 0.1 22.7 0.1 0.3 1.6 0.9 4 0.9 6.4 0.1 41.5 0 82.9 0.1 124.4 0 4-0.9 5.7-5.3 5.5-7.6-0.3-15.3-0.1-23.5-0.1 0-18.8 0-37.5 0-56.5-21.5 0-42.4 0-64.2 0 0 10.1 0 20.1 0 30.5z"/>
	<path id="Shape 1" class="s4" d="m28 252c-5 0-9-2.7-9-6 0-3.3 4-6 9-6 5 0 9 2.7 9 6 0 3.3-4 6-9 6z"/>
	<path id="Shape 2" class="s3" d="m44.5 302c-3 0-5.5-0.9-5.5-2 0-1.1 2.5-2 5.5-2 3 0 5.5 0.9 5.5 2 0 1.1-2.5 2-5.5 2z"/>
</svg>